<svg width="23" height="23" viewBox="0 0 23 23" fill="none" xmlns="http://www.w3.org/2000/svg">
<path d="M18.4479 0.625C20.6168 0.625 22.375 2.38321 22.375 4.55208V18.4479C22.375 20.6168 20.6168 22.375 18.4479 22.375H4.55208C2.38321 22.375 0.625 20.6168 0.625 18.4479V4.55208C0.625 2.38321 2.38321 0.625 4.55208 0.625H18.4479ZM6.36458 5.45833C5.86408 5.45833 5.45833 5.86408 5.45833 6.36458V16.6354C5.45833 17.1359 5.86408 17.5417 6.36458 17.5417C6.86509 17.5417 7.27083 17.1359 7.27083 16.6354V6.36458C7.27083 5.86408 6.86509 5.45833 6.36458 5.45833Z" fill="#0072BB"/>
</svg>
