<svg width="15" height="15" viewBox="0 0 15 15" fill="none" xmlns="http://www.w3.org/2000/svg">
<path d="M1.19401 6.95254C1.12018 6.95254 1.04635 6.94551 0.970765 6.92969C0.360804 6.80664 -0.0329459 6.21426 0.0883432 5.60605C0.248304 4.81152 0.534827 4.06621 0.94264 3.39473C1.34518 2.73203 1.85494 2.15195 2.45963 1.67031C3.06256 1.19043 3.74635 0.817773 4.49166 0.564648C5.24576 0.309766 6.04733 0.179688 6.87702 0.179688C7.49752 0.179688 8.00202 0.68418 8.00202 1.30469C8.00202 1.9252 7.49752 2.42969 6.87702 2.42969C4.53561 2.42969 2.73737 3.85 2.2944 6.04902C2.18717 6.5834 1.71784 6.95254 1.19401 6.95254ZM7.00006 14.0488C5.74323 14.0488 4.52506 13.7271 3.47565 13.1154C2.4526 12.5213 1.59127 11.6529 0.981312 10.6053C0.668421 10.0674 0.851234 9.38008 1.38737 9.06719C1.92526 8.7543 2.61256 8.93711 2.92545 9.47324C3.78678 10.9516 5.27037 11.7988 7.00006 11.7988C7.48698 11.7988 7.9651 11.7268 8.42389 11.5844C9.01803 11.3998 9.64733 11.732 9.8319 12.3262C10.0165 12.9203 9.68424 13.5496 9.0901 13.7342C8.4151 13.9434 7.71198 14.0488 7.00006 14.0488ZM12.2014 10.9727C12.0098 10.9727 11.8165 10.9234 11.6389 10.8215C11.101 10.5104 10.9182 9.82129 11.2294 9.2834C11.6231 8.60488 11.7989 7.9 11.7989 7C11.7989 5.71855 11.2997 4.5127 10.3926 3.60742C9.95319 3.16797 9.95319 2.45605 10.3926 2.0166C10.8321 1.57715 11.544 1.57715 11.9835 2.0166C12.6303 2.66348 13.1383 3.41758 13.4934 4.25605C13.8608 5.12617 14.0471 6.04902 14.0471 7C14.0471 8.30078 13.7694 9.38535 13.1753 10.4119C12.9678 10.7723 12.5899 10.9727 12.2014 10.9727Z" fill="white"/>
</svg>
