<svg width="25" height="26" viewBox="0 0 25 26" fill="none" xmlns="http://www.w3.org/2000/svg">
<path d="M10.0827 5.04167H14.916C14.916 3.70698 13.8341 2.625 12.4993 2.625C11.1646 2.625 10.0827 3.70698 10.0827 5.04167ZM8.27018 5.04167C8.27018 2.70596 10.1636 0.8125 12.4993 0.8125C14.8351 0.8125 16.7285 2.70596 16.7285 5.04167H23.6764C24.1769 5.04167 24.5827 5.44741 24.5827 5.94792C24.5827 6.44842 24.1769 6.85417 23.6764 6.85417H22.0825L20.6664 21.4885C20.4416 23.8112 18.4897 25.5833 16.1561 25.5833H8.84256C6.50908 25.5833 4.55715 23.8112 4.33238 21.4885L2.91615 6.85417H1.32227C0.821762 6.85417 0.416016 6.44842 0.416016 5.94792C0.416016 5.44741 0.821762 5.04167 1.32227 5.04167H8.27018ZM10.6868 10.7812C10.6868 10.2807 10.2811 9.875 9.7806 9.875C9.2801 9.875 8.87435 10.2807 8.87435 10.7812V19.8438C8.87435 20.3442 9.2801 20.75 9.7806 20.75C10.2811 20.75 10.6868 20.3442 10.6868 19.8438V10.7812ZM15.2181 9.875C14.7176 9.875 14.3118 10.2807 14.3118 10.7812V19.8438C14.3118 20.3442 14.7176 20.75 15.2181 20.75C15.7186 20.75 16.1243 20.3442 16.1243 19.8438V10.7812C16.1243 10.2807 15.7186 9.875 15.2181 9.875Z" fill="#E91407"/>
</svg>
