<svg width="77" height="91" viewBox="0 0 77 91" fill="none" xmlns="http://www.w3.org/2000/svg">
<path d="M71.6497 34.909C71.5167 34.873 71.3807 34.85 71.2447 34.827C71.2437 34.796 71.2427 34.766 71.2417 34.736C71.1967 33.361 71.1507 31.94 71.1507 30.516C71.1507 26.13 70.2687 22.037 68.6507 18.359C68.7467 18.191 68.8167 18.006 68.8167 17.798C68.8167 17.224 68.3917 16.77 67.8427 16.681C62.7577 6.902 52.2147 0.453 39.0867 0.0300002V0L38.0607 0.00500011L37.7857 0L37.0357 0.0120001V0.0300002C23.9097 0.454 13.3747 6.92 8.32571 16.717C7.86771 16.869 7.53371 17.287 7.53371 17.797C7.53371 17.939 7.56771 18.072 7.61471 18.197C5.97471 21.887 5.07871 25.998 5.07871 30.408C5.07871 31.887 5.01971 33.37 4.96071 34.809C4.79571 34.834 4.63271 34.864 4.47271 34.908C0.424712 36.018 -1.14829 42.709 0.890713 50.14C2.39771 55.631 5.46171 59.856 8.63471 61.141C8.94671 63.201 9.23371 65.316 9.47171 67.418C9.55471 68.153 9.71971 68.865 9.92771 69.563C9.86971 69.7 9.83771 69.851 9.83771 70.009C9.83771 70.442 10.0867 70.805 10.4397 71.003C12.7067 76.375 18.2107 80.541 22.0877 83.469C22.1047 83.482 22.1207 83.494 22.1377 83.507C22.2457 84.031 22.6877 84.433 23.2447 84.433C23.2757 84.433 23.3017 84.418 23.3317 84.415C24.0497 84.966 24.6807 85.468 25.1557 85.906C28.5717 89.048 31.5297 90.175 37.0367 90.35V90.377L38.0577 90.373L38.3377 90.377L39.0877 90.368V90.35C44.5947 90.174 47.5527 89.047 50.9687 85.906C51.4437 85.469 52.0737 84.968 52.7907 84.417C52.8187 84.419 52.8427 84.433 52.8717 84.433C53.4257 84.433 53.8657 84.035 53.9757 83.515C53.9967 83.499 54.0157 83.485 54.0367 83.469C57.8907 80.559 63.3517 76.428 65.6457 71.105C66.1417 70.976 66.5137 70.545 66.5137 70.009C66.5137 69.747 66.4107 69.517 66.2637 69.324C66.4367 68.702 66.5787 68.07 66.6527 67.418C66.8907 65.316 67.1777 63.201 67.4887 61.141C70.6607 59.855 73.7247 55.631 75.2317 50.139C77.2707 42.71 75.6977 36.019 71.6497 34.909ZM2.33571 49.744C0.579712 43.345 1.73971 37.213 4.86871 36.355C4.87871 36.352 4.88971 36.354 4.89971 36.351C4.78271 39.556 4.76571 42.575 5.49171 45.217C5.59571 45.593 5.70971 46.041 5.82871 46.524C5.68771 46.715 5.58871 46.939 5.58871 47.194C5.58871 47.643 5.85271 48.022 6.22771 48.212C6.87971 51.084 7.65671 55.017 8.34871 59.318C5.93571 57.814 3.54571 54.15 2.33571 49.744ZM65.1617 67.251C65.1167 67.649 65.0477 68.041 64.9587 68.429L64.8097 68.224L64.4867 68.459L64.8207 68.917C64.8097 68.956 64.7987 68.995 64.7867 69.033C64.4477 69.233 64.2087 69.587 64.2087 70.01C64.2087 70.026 64.2167 70.04 64.2177 70.055L63.3957 70.235L63.4817 70.626L64.2857 70.45C62.1787 75.402 56.9507 79.388 53.2257 82.2C53.1377 82.171 53.0457 82.151 52.9497 82.144L52.8717 81.41L52.4747 81.452L52.5537 82.192C52.0747 82.332 51.7177 82.756 51.7177 83.281C51.7177 83.302 51.7287 83.32 51.7297 83.341C51.0437 83.871 50.4337 84.361 49.9527 84.803C46.6657 87.826 43.9487 88.777 38.3257 88.869L38.0617 88.873L37.7967 88.87C32.1737 88.778 29.4567 87.828 26.1697 84.804C25.6947 84.367 25.0937 83.885 24.4197 83.363H24.4227L24.3407 82.971L24.3327 82.972C24.1957 82.49 23.7707 82.13 23.2437 82.13C23.1197 82.13 23.0057 82.164 22.8937 82.2C19.2207 79.426 14.0787 75.512 11.9177 70.655C11.9637 70.589 12.0197 70.529 12.0507 70.453L12.6377 70.584L12.7247 70.193L12.1297 70.06C12.1297 70.043 12.1397 70.028 12.1397 70.011C12.1397 69.486 11.7827 69.062 11.3027 68.923C11.1507 68.375 11.0247 67.82 10.9607 67.251C10.1357 59.972 8.74071 52.5 7.67871 47.828C7.80371 47.644 7.89371 47.434 7.89371 47.195C7.89371 46.763 7.64671 46.401 7.29471 46.203C7.16871 45.689 7.04671 45.217 6.93871 44.82C6.16871 42.02 6.30771 38.613 6.45471 35.007C6.51571 33.511 6.57871 31.965 6.57871 30.41C6.57871 26.306 7.39471 22.47 8.89771 19.018L9.21871 18.925L9.18871 18.822C9.42271 18.706 9.61171 18.518 9.72171 18.282L10.4117 18.624L10.5897 18.266L9.81871 17.884C9.82071 17.854 9.83671 17.828 9.83671 17.798C9.83671 17.663 9.80271 17.537 9.75971 17.417L10.5897 16.944L10.3917 16.596L9.97671 16.832C15.0007 7.663 25.1907 1.701 37.7967 1.513L37.9667 1.508L38.3257 1.513C50.7537 1.698 60.8467 7.477 65.9767 16.409L65.8767 16.355L65.6877 16.708L66.3277 17.052C66.4097 17.204 66.4927 17.355 66.5717 17.508C66.5467 17.603 66.5127 17.695 66.5127 17.798C66.5127 17.907 66.5467 18.006 66.5747 18.106L65.9177 18.426L66.0927 18.785L66.7507 18.465C66.8557 18.609 66.9847 18.729 67.1447 18.811L67.0857 19.002L67.3207 19.075C68.8317 22.541 69.6517 26.393 69.6517 30.516C69.6517 31.964 69.6987 33.398 69.7437 34.785C69.8637 38.463 69.9767 41.937 69.1837 44.82C69.0817 45.192 68.9687 45.632 68.8517 46.106C68.3717 46.245 68.0137 46.669 68.0137 47.195C68.0137 47.532 68.1647 47.829 68.3957 48.04C67.3387 52.724 65.9737 60.081 65.1617 67.251ZM73.7857 49.744C72.5767 54.151 70.1857 57.815 67.7727 59.318C68.4777 54.933 69.2717 50.926 69.9317 48.041C70.1647 47.83 70.3167 47.533 70.3167 47.194C70.3167 47.043 70.2837 46.901 70.2307 46.769C70.3737 46.183 70.5077 45.658 70.6287 45.217C71.3577 42.565 71.3777 39.558 71.2907 36.37C74.3897 37.269 75.5337 43.372 73.7857 49.744Z" fill="white"/>
<path d="M38.0611 44.353C37.7741 44.353 37.5201 44.468 37.3191 44.642L36.9171 44.314L36.6641 44.624L37.0691 44.955C36.9761 45.121 36.9091 45.303 36.9091 45.506C36.9091 46.142 37.4261 46.658 38.0611 46.658C38.6981 46.658 39.2141 46.142 39.2141 45.506C39.2141 44.87 38.6981 44.353 38.0611 44.353Z" fill="white"/>
<path d="M52.8688 53.33C53.505 53.33 54.0208 52.8142 54.0208 52.178C54.0208 51.5418 53.505 51.026 52.8688 51.026C52.2326 51.026 51.7168 51.5418 51.7168 52.178C51.7168 52.8142 52.2326 53.33 52.8688 53.33Z" fill="white"/>
<path d="M50.5335 34.3521C50.5335 34.5571 50.6015 34.7391 50.6945 34.9051L50.3145 35.2161L50.5675 35.5261L50.9445 35.2171C51.1465 35.3901 51.3995 35.5051 51.6855 35.5051C52.3225 35.5051 52.8375 34.9891 52.8375 34.3531C52.8375 33.7161 52.3225 33.2011 51.6855 33.2011C51.0495 33.1991 50.5335 33.7151 50.5335 34.3521Z" fill="white"/>
<path d="M24.3942 35.504C25.0304 35.504 25.5462 34.9882 25.5462 34.352C25.5462 33.7157 25.0304 33.2 24.3942 33.2C23.758 33.2 23.2422 33.7157 23.2422 34.352C23.2422 34.9882 23.758 35.504 24.3942 35.504Z" fill="white"/>
<path d="M38.0846 63.687C38.7214 63.687 39.2376 63.1708 39.2376 62.534C39.2376 61.8972 38.7214 61.381 38.0846 61.381C37.4479 61.381 36.9316 61.8972 36.9316 62.534C36.9316 63.1708 37.4479 63.687 38.0846 63.687Z" fill="white"/>
<path d="M38.0853 79.146C37.7173 79.146 37.4043 79.329 37.1933 79.597L36.8423 79.41L36.6543 79.763L37.0033 79.949C36.9663 80.061 36.9323 80.175 36.9323 80.299C36.9323 80.935 37.4483 81.451 38.0853 81.451C38.7223 81.451 39.2363 80.935 39.2363 80.299C39.2363 79.661 38.7223 79.146 38.0853 79.146Z" fill="white"/>
<path d="M51.7168 71.845C51.0798 71.845 50.5648 72.361 50.5648 72.998C50.5648 73.132 50.5988 73.257 50.6418 73.377L50.3438 73.536L50.5318 73.889L50.8418 73.724C51.0488 73.974 51.3488 74.141 51.6978 74.147L51.7347 74.493L52.1318 74.451L52.0918 74.075C52.5418 73.918 52.8688 73.501 52.8688 72.998C52.8698 72.361 52.3548 71.845 51.7168 71.845Z" fill="white"/>
<path d="M24.3952 74.151C25.032 74.151 25.5482 73.6348 25.5482 72.998C25.5482 72.3612 25.032 71.845 24.3952 71.845C23.7584 71.845 23.2422 72.3612 23.2422 72.998C23.2422 73.6348 23.7584 74.151 24.3952 74.151Z" fill="white"/>
<path d="M62.5641 35.504C63.2003 35.504 63.7161 34.9882 63.7161 34.352C63.7161 33.7157 63.2003 33.2 62.5641 33.2C61.9279 33.2 61.4121 33.7157 61.4121 34.352C61.4121 34.9882 61.9279 35.504 62.5641 35.504Z" fill="white"/>
<path d="M13.4645 35.504C14.1007 35.504 14.6165 34.9882 14.6165 34.352C14.6165 33.7157 14.1007 33.2 13.4645 33.2C12.8283 33.2 12.3125 33.7157 12.3125 34.352C12.3125 34.9882 12.8283 35.504 13.4645 35.504Z" fill="white"/>
<path d="M44.2806 58.282C44.2806 58.129 44.2476 57.984 44.1936 57.851L44.5016 57.658L44.2886 57.319L43.9756 57.515C43.7646 57.282 43.4676 57.13 43.1286 57.13C43.0486 57.13 42.9796 57.16 42.9046 57.175L42.6716 56.587L42.2996 56.734L42.5326 57.32C42.2056 57.524 41.9766 57.869 41.9766 58.282C41.9766 58.918 42.4926 59.435 43.1286 59.435C43.7646 59.435 44.2806 58.918 44.2806 58.282Z" fill="white"/>
<path d="M34.1527 58.482H35.1297V58.082H34.1527C34.0937 57.756 33.9067 57.486 33.6347 57.318L33.8587 56.747L33.4867 56.601L33.2617 57.174C33.1877 57.159 33.1187 57.13 33.0407 57.13C32.4037 57.13 31.8887 57.646 31.8887 58.282C31.8887 58.918 32.4037 59.435 33.0407 59.435C33.6067 59.435 34.0547 59.019 34.1527 58.482Z" fill="white"/>
<path d="M24.3942 10.005C24.9592 10.005 25.4082 9.59005 25.5052 9.05305H26.2922V8.65305H25.5052C25.4072 8.11605 24.9592 7.70105 24.3942 7.70105C23.7572 7.70105 23.2422 8.21705 23.2422 8.85305C23.2422 9.48905 23.7572 10.005 24.3942 10.005Z" fill="white"/>
<path d="M51.2624 9.91005L51.2144 9.89605L50.9414 10.8581L51.3264 10.9671L51.5994 10.005L51.3024 9.92105C51.4314 9.97105 51.5704 10.005 51.7184 10.005C52.3554 10.005 52.8704 9.48905 52.8704 8.85305C52.8704 8.21605 52.3554 7.70105 51.7184 7.70105C51.0814 7.70105 50.5664 8.21705 50.5664 8.85305C50.5654 9.32705 50.8534 9.73305 51.2624 9.91005Z" fill="white"/>
<path d="M47.3741 28.229C47.3741 27.592 46.8591 27.077 46.2221 27.077C45.6561 27.077 45.2081 27.492 45.1101 28.029H44.2051V28.429H45.1101C45.2081 28.966 45.6561 29.381 46.2221 29.381C46.8591 29.382 47.3741 28.865 47.3741 28.229Z" fill="white"/>
<path d="M30.2028 29.381C30.839 29.381 31.3548 28.8653 31.3548 28.229C31.3548 27.5928 30.839 27.077 30.2028 27.077C29.5665 27.077 29.0508 27.5928 29.0508 28.229C29.0508 28.8653 29.5665 29.381 30.2028 29.381Z" fill="white"/>
<path d="M33.8175 41.7831L33.5645 42.0929L34.3389 42.7256L34.5919 42.4158L33.8175 41.7831Z" fill="white"/>
<path d="M27.368 37.0338L28.1426 37.6663L28.3956 37.3564L27.621 36.7239L27.368 37.0338Z" fill="white"/>
<path d="M29.6903 38.9333L29.9434 38.6235L29.169 37.9908L28.9159 38.3006L29.6903 38.9333Z" fill="white"/>
<path d="M31.4955 39.8868L30.7207 39.2546L30.4678 39.5646L31.2426 40.1968L31.4955 39.8868Z" fill="white"/>
<path d="M32.2687 40.5192L32.0156 40.829L32.79 41.4617L33.0431 41.1519L32.2687 40.5192Z" fill="white"/>
<path d="M25.817 35.7715L26.5918 36.4037L26.8447 36.0938L26.0699 35.4616L25.817 35.7715Z" fill="white"/>
<path d="M35.1119 43.3593L35.8867 43.9915L36.1396 43.6815L35.3648 43.0493L35.1119 43.3593Z" fill="white"/>
<path d="M44.8985 39.652L44.125 40.2858L44.3785 40.5952L45.152 39.9614L44.8985 39.652Z" fill="white"/>
<path d="M39.4787 44.0824L39.7324 44.3917L40.5056 43.7575L40.2519 43.4482L39.4787 44.0824Z" fill="white"/>
<path d="M42.0558 42.4937L41.8027 42.184L41.0283 42.8167L41.2814 43.1264L42.0558 42.4937Z" fill="white"/>
<path d="M49.0173 36.7923L49.791 36.1587L49.5376 35.8492L48.7639 36.4828L49.0173 36.7923Z" fill="white"/>
<path d="M43.6027 41.227L43.3496 40.9172L42.5752 41.5499L42.8283 41.8597L43.6027 41.227Z" fill="white"/>
<path d="M47.2196 37.7485L47.4727 38.0582L48.2471 37.4255L47.994 37.1158L47.2196 37.7485Z" fill="white"/>
<path d="M46.4458 38.3815L45.6719 39.0148L45.9252 39.3243L46.6991 38.691L46.4458 38.3815Z" fill="white"/>
<path d="M44.5268 48.1993L43.6152 47.7882L43.4508 48.1528L44.3624 48.5639L44.5268 48.1993Z" fill="white"/>
<path d="M45.268 48.9744L46.1797 49.3853L46.344 49.0206L45.4323 48.6097L45.268 48.9744Z" fill="white"/>
<path d="M42.7028 47.3781L41.791 46.9674L41.6267 47.3321L42.5385 47.7428L42.7028 47.3781Z" fill="white"/>
<path d="M49.0862 50.2536L48.9219 50.6183L49.8337 51.029L49.998 50.6643L49.0862 50.2536Z" fill="white"/>
<path d="M40.7148 46.9212L40.8789 46.5564L39.9669 46.1462L39.8028 46.511L40.7148 46.9212Z" fill="white"/>
<path d="M48.1735 49.8433L47.2617 49.4326L47.0974 49.7973L48.0092 50.208L48.1735 49.8433Z" fill="white"/>
<path d="M51.8198 51.4853L50.9082 51.0742L50.7438 51.4389L51.6554 51.85L51.8198 51.4853Z" fill="white"/>
<path d="M61.5331 49.7361L61.416 49.3536L60.4598 49.6463L60.5769 50.0288L61.5331 49.7361Z" fill="white"/>
<path d="M62.489 49.4394L63.4453 49.1469L63.3283 48.7643L62.372 49.0568L62.489 49.4394Z" fill="white"/>
<path d="M64.2872 48.4785L64.4043 48.861L65.3605 48.5683L65.2434 48.1858L64.2872 48.4785Z" fill="white"/>
<path d="M66.1993 47.8929L66.3164 48.2754L67.2726 47.9827L67.1555 47.6002L66.1993 47.8929Z" fill="white"/>
<path d="M56.6368 50.8175L56.7539 51.2L57.7101 50.9073L57.593 50.5248L56.6368 50.8175Z" fill="white"/>
<path d="M55.679 51.1141L54.7227 51.4066L54.8397 51.7891L55.796 51.4966L55.679 51.1141Z" fill="white"/>
<path d="M59.619 50.3203L59.502 49.9379L58.5458 50.2306L58.6628 50.613L59.619 50.3203Z" fill="white"/>
<path d="M63.9628 37.5032L64.4199 38.3926L64.7757 38.2097L64.3186 37.3203L63.9628 37.5032Z" fill="white"/>
<path d="M66.5958 41.7654L66.1387 40.876L65.7829 41.0588L66.24 41.9482L66.5958 41.7654Z" fill="white"/>
<path d="M64.8769 39.2821L65.334 40.1715L65.6897 39.9887L65.2326 39.0993L64.8769 39.2821Z" fill="white"/>
<path d="M63.854 36.4286L63.3965 35.5394L63.0408 35.7224L63.4983 36.6116L63.854 36.4286Z" fill="white"/>
<path d="M66.707 42.8394L67.1641 43.7288L67.5198 43.5459L67.0627 42.6565L66.707 42.8394Z" fill="white"/>
<path d="M68.4263 45.323L67.9688 44.4338L67.6131 44.6168L68.0706 45.506L68.4263 45.323Z" fill="white"/>
<path d="M54.6875 34.151H53.6875V34.551H54.6875V34.151Z" fill="white"/>
<path d="M56.6875 34.151H55.6875V34.551H56.6875V34.151Z" fill="white"/>
<path d="M58.6875 34.151H57.6875V34.551H58.6875V34.151Z" fill="white"/>
<path d="M60.6875 34.151H59.6875V34.551H60.6875V34.151Z" fill="white"/>
<path d="M27.2977 50.8069L26.4082 51.2639L26.591 51.6197L27.4805 51.1627L27.2977 50.8069Z" fill="white"/>
<path d="M33.7003 47.9687L34.5898 47.5117L34.407 47.1559L33.5175 47.6129L33.7003 47.9687Z" fill="white"/>
<path d="M30.8543 48.9798L29.9648 49.4368L30.1476 49.7926L31.0371 49.3356L30.8543 48.9798Z" fill="white"/>
<path d="M29.071 49.8982L28.1816 50.3553L28.3645 50.7111L29.2539 50.254L29.071 49.8982Z" fill="white"/>
<path d="M32.8156 48.4267L32.6328 48.0709L31.7433 48.5279L31.9261 48.8837L32.8156 48.4267Z" fill="white"/>
<path d="M35.2977 46.6945L35.4805 47.0503L36.37 46.5933L36.1872 46.2375L35.2977 46.6945Z" fill="white"/>
<path d="M10.5371 48.4326L11.502 48.6953L11.607 48.3094L10.6421 48.0467L10.5371 48.4326Z" fill="white"/>
<path d="M18.2578 50.5319L19.2227 50.7946L19.3277 50.4086L18.3628 50.1459L18.2578 50.5319Z" fill="white"/>
<path d="M22.1191 51.5827L23.084 51.8453L23.189 51.4594L22.2241 51.1968L22.1191 51.5827Z" fill="white"/>
<path d="M21.2579 50.9365L20.293 50.6738L20.1879 51.0598L21.1528 51.3225L21.2579 50.9365Z" fill="white"/>
<path d="M17.3985 49.8865L16.4336 49.6238L16.3285 50.0097L17.2934 50.2724L17.3985 49.8865Z" fill="white"/>
<path d="M14.3964 49.4823L15.3613 49.745L15.4664 49.359L14.5015 49.0963L14.3964 49.4823Z" fill="white"/>
<path d="M13.5372 48.8354L12.5723 48.5728L12.4672 48.9587L13.4321 49.2213L13.5372 48.8354Z" fill="white"/>
<path d="M8.60737 47.908L9.57227 48.1707L9.67735 47.7847L8.71245 47.522L8.60737 47.908Z" fill="white"/>
<path d="M9.23917 42.8574L8.88477 42.6719L8.42107 43.5579L8.77547 43.7434L9.23917 42.8574Z" fill="white"/>
<path d="M9.34482 41.7857L9.69922 41.9712L10.1629 41.0852L9.80852 40.8997L9.34482 41.7857Z" fill="white"/>
<path d="M11.667 37.3537L11.2031 38.2396L11.5575 38.4252L12.0214 37.5393L11.667 37.3537Z" fill="white"/>
<path d="M7.48935 45.329L7.84375 45.5145L8.30745 44.6285L7.95305 44.443L7.48935 45.329Z" fill="white"/>
<path d="M12.5948 35.582L12.1309 36.4679L12.4852 36.6535L12.9491 35.7676L12.5948 35.582Z" fill="white"/>
<path d="M11.0946 39.3129L10.7402 39.1274L10.2765 40.0134L10.6309 40.1989L11.0946 39.3129Z" fill="white"/>
<path d="M16.4648 34.151H15.4648V34.551H16.4648V34.151Z" fill="white"/>
<path d="M20.4648 34.151H19.4648V34.551H20.4648V34.151Z" fill="white"/>
<path d="M18.4648 34.151H17.4648V34.551H18.4648V34.151Z" fill="white"/>
<path d="M22.4648 34.151H21.4648V34.551H22.4648V34.151Z" fill="white"/>
<path d="M51.0679 53.0682L50.2207 53.5995L50.4332 53.9384L51.2804 53.4071L51.0679 53.0682Z" fill="white"/>
<path d="M49.3745 54.1297L48.5273 54.661L48.7399 54.9999L49.5871 54.4686L49.3745 54.1297Z" fill="white"/>
<path d="M46.1952 56.5986L45.9824 56.2599L45.1356 56.7919L45.3484 57.1306L46.1952 56.5986Z" fill="white"/>
<path d="M47.6793 55.1886L46.832 55.7197L47.0445 56.0586L47.8918 55.5275L47.6793 55.1886Z" fill="white"/>
<path d="M31.5755 56.9042L30.7812 56.2966L30.5382 56.6143L31.3324 57.2219L31.5755 56.9042Z" fill="white"/>
<path d="M26.8081 53.261L26.0761 52.7C26.1581 52.541 26.2161 52.368 26.2161 52.178C26.2161 51.541 25.7011 51.026 25.0641 51.026C24.4271 51.026 23.9121 51.542 23.9121 52.178C23.9121 52.814 24.4281 53.331 25.0641 53.331C25.3641 53.331 25.6321 53.209 25.8371 53.021L26.5651 53.578L26.8081 53.261Z" fill="white"/>
<path d="M28.3977 54.4736L27.6035 53.866L27.3605 54.1836L28.1547 54.7912L28.3977 54.4736Z" fill="white"/>
<path d="M29.9876 55.6939L29.1934 55.0862L28.9503 55.4039L29.7445 56.0116L29.9876 55.6939Z" fill="white"/>
<path d="M36.9912 61.351L36.2266 60.7065L35.9688 61.0124L36.7334 61.6569L36.9912 61.351Z" fill="white"/>
<path d="M35.4656 60.0605L34.7012 59.4158L34.4433 59.7215L35.2077 60.3662L35.4656 60.0605Z" fill="white"/>
<path d="M39.9404 60.7058L39.1758 61.3503L39.4336 61.6562L40.1982 61.0117L39.9404 60.7058Z" fill="white"/>
<path d="M41.7266 59.721L41.4688 59.4153L40.7043 60.06L40.9622 60.3657L41.7266 59.721Z" fill="white"/>
<path d="M39.127 58.082H38.127V58.482H39.127V58.082Z" fill="white"/>
<path d="M41.127 58.082H40.127V58.482H41.127V58.082Z" fill="white"/>
<path d="M37.127 58.082H36.127V58.482H37.127V58.082Z" fill="white"/>
<path d="M36.0558 51.1624L35.6836 51.0159L35.3173 51.9464L35.6895 52.0929L36.0558 51.1624Z" fill="white"/>
<path d="M35.3253 53.0235L34.9531 52.877L34.5868 53.8075L34.959 53.954L35.3253 53.0235Z" fill="white"/>
<path d="M37.5167 47.439L37.1445 47.2925L36.7782 48.223L37.1504 48.3695L37.5167 47.439Z" fill="white"/>
<path d="M36.7863 49.3003L36.4141 49.1538L36.0478 50.0843L36.42 50.2308L36.7863 49.3003Z" fill="white"/>
<path d="M34.5929 54.8854L34.2207 54.7389L33.8544 55.6694L34.2266 55.8159L34.5929 54.8854Z" fill="white"/>
<path d="M40.8256 51.938L40.457 51.0084L40.0852 51.1559L40.4538 52.0855L40.8256 51.938Z" fill="white"/>
<path d="M38.9793 47.2903L38.6074 47.4376L38.9758 48.3672L39.3477 48.2199L38.9793 47.2903Z" fill="white"/>
<path d="M42.3002 55.6565L41.9316 54.7269L41.5598 54.8744L41.9284 55.804L42.3002 55.6565Z" fill="white"/>
<path d="M40.0874 50.0789L39.7188 49.1493L39.3469 49.2967L39.7155 50.2263L40.0874 50.0789Z" fill="white"/>
<path d="M41.1985 53.9452L41.5703 53.7979L41.2019 52.8683L40.8301 53.0156L41.1985 53.9452Z" fill="white"/>
<path d="M46.8262 64.2294L46.3223 63.3656L45.9767 63.5672L46.4806 64.431L46.8262 64.2294Z" fill="white"/>
<path d="M43.9627 60.1128L44.4668 60.9764L44.8122 60.7748L44.3081 59.9112L43.9627 60.1128Z" fill="white"/>
<path d="M49.8598 69.4083L49.3555 68.5448L49.0101 68.7465L49.5144 69.61L49.8598 69.4083Z" fill="white"/>
<path d="M48.8437 67.6837L48.3398 66.8199L47.9943 67.0215L48.4982 67.8853L48.8437 67.6837Z" fill="white"/>
<path d="M50.8594 71.1385L50.3555 70.2747L50.0099 70.4762L50.5138 71.34L50.8594 71.1385Z" fill="white"/>
<path d="M47.4883 66.1593L47.834 65.9581L47.331 65.0938L46.9853 65.295L47.4883 66.1593Z" fill="white"/>
<path d="M45.8184 62.5019L45.3145 61.6381L44.9689 61.8396L45.4728 62.7034L45.8184 62.5019Z" fill="white"/>
<path d="M53.6211 72.3757L53.707 72.7664L54.6836 72.5515L54.5977 72.1608L53.6211 72.3757Z" fill="white"/>
<path d="M55.5742 71.9476L55.6602 72.3383L56.6368 72.1234L56.5508 71.7327L55.5742 71.9476Z" fill="white"/>
<path d="M57.5293 71.5209L57.6152 71.9115L58.5918 71.6966L58.5059 71.306L57.5293 71.5209Z" fill="white"/>
<path d="M59.4824 71.0929L59.5684 71.4835L60.545 71.2686L60.459 70.878L59.4824 71.0929Z" fill="white"/>
<path d="M61.4355 70.6651L61.5215 71.0558L62.4981 70.8409L62.4121 70.4502L61.4355 70.6651Z" fill="white"/>
<path d="M59.7783 61.9942L60.3672 62.8024L60.6905 62.5668L60.1016 61.7586L59.7783 61.9942Z" fill="white"/>
<path d="M61.8623 64.1814L61.2734 63.3732L60.9502 63.6087L61.5391 64.4169L61.8623 64.1814Z" fill="white"/>
<path d="M62.1338 65.2274L62.7227 66.0356L63.0459 65.8001L62.457 64.9919L62.1338 65.2274Z" fill="white"/>
<path d="M56.2431 57.1452L56.832 57.9534L57.1553 57.7178L56.5664 56.9096L56.2431 57.1452Z" fill="white"/>
<path d="M55.9737 56.1006L55.3848 55.2924L55.0615 55.5279L55.6504 56.3361L55.9737 56.1006Z" fill="white"/>
<path d="M58.3291 59.3331L57.7402 58.5249L57.417 58.7605L58.0059 59.5687L58.3291 59.3331Z" fill="white"/>
<path d="M53.8877 53.9123L54.4766 54.7205L54.7998 54.4849L54.2109 53.6767L53.8877 53.9123Z" fill="white"/>
<path d="M63.3151 66.8429L63.9043 67.6509L64.2275 67.4152L63.6383 66.6072L63.3151 66.8429Z" fill="white"/>
<path d="M58.9191 60.1415L58.5957 60.377L59.1843 61.1854L59.5077 60.9499L58.9191 60.1415Z" fill="white"/>
<path d="M24.8119 66.1781L24.4121 66.1654L24.3803 67.1649L24.7801 67.1776L24.8119 66.1781Z" fill="white"/>
<path d="M24.2564 71.1604L24.6562 71.1731L24.6881 70.1736L24.2882 70.1609L24.2564 71.1604Z" fill="white"/>
<path d="M24.8764 64.1792L24.4766 64.1665L24.4448 65.166L24.8446 65.1787L24.8764 64.1792Z" fill="white"/>
<path d="M24.7475 68.1771L24.3477 68.1644L24.3159 69.1639L24.7157 69.1766L24.7475 68.1771Z" fill="white"/>
<path d="M24.9408 62.1801L24.541 62.1674L24.5092 63.1669L24.909 63.1796L24.9408 62.1801Z" fill="white"/>
<path d="M25.1986 54.1851L24.7988 54.1724L24.767 55.1719L25.1668 55.1846L25.1986 54.1851Z" fill="white"/>
<path d="M25.1342 56.1841L24.7344 56.1714L24.7026 57.1709L25.1024 57.1836L25.1342 56.1841Z" fill="white"/>
<path d="M25.0053 60.1812L24.6055 60.1685L24.5737 61.168L24.9735 61.1807L25.0053 60.1812Z" fill="white"/>
<path d="M25.0697 58.1831L24.6699 58.1704L24.6381 59.1699L25.0379 59.1826L25.0697 58.1831Z" fill="white"/>
<path d="M52.2296 68.1686L51.8301 68.1481L51.7788 69.1468L52.1783 69.1673L52.2296 68.1686Z" fill="white"/>
<path d="M52.544 62.1765L52.1445 62.156L52.0932 63.1547L52.4927 63.1752L52.544 62.1765Z" fill="white"/>
<path d="M52.335 66.1715L51.9355 66.151L51.8842 67.1497L52.2837 67.1702L52.335 66.1715Z" fill="white"/>
<path d="M52.4385 64.1746L52.0391 64.1541L51.9878 65.1528L52.3872 65.1733L52.4385 64.1746Z" fill="white"/>
<path d="M51.6747 71.1391L52.0742 71.1597L52.1255 70.161L51.726 70.1404L51.6747 71.1391Z" fill="white"/>
<path d="M52.5126 55.1614L52.9121 55.1819L52.9634 54.1832L52.5639 54.1627L52.5126 55.1614Z" fill="white"/>
<path d="M52.6495 60.1795L52.25 60.1589L52.1987 61.1576L52.5982 61.1782L52.6495 60.1795Z" fill="white"/>
<path d="M52.8585 56.1854L52.459 56.1649L52.4077 57.1636L52.8072 57.1841L52.8585 56.1854Z" fill="white"/>
<path d="M52.753 58.1824L52.3535 58.1619L52.3022 59.1606L52.7017 59.1811L52.753 58.1824Z" fill="white"/>
<path d="M28.3097 65.9352L28.6543 66.1383L29.162 65.2767L28.8174 65.0736L28.3097 65.9352Z" fill="white"/>
<path d="M27.1337 68.7348L26.7891 68.5317L26.2814 69.3933L26.626 69.5964L27.1337 68.7348Z" fill="white"/>
<path d="M25.6147 71.3124L26.1211 70.4501L25.7762 70.2475L25.2698 71.1098L25.6147 71.3124Z" fill="white"/>
<path d="M30.3327 62.4952L30.6777 62.6975L31.1835 61.8349L30.8385 61.6326L30.3327 62.4952Z" fill="white"/>
<path d="M30.1751 63.5523L29.8301 63.35L29.3243 64.2126L29.6693 64.4149L30.1751 63.5523Z" fill="white"/>
<path d="M32.2005 60.1041L31.8555 59.9017L31.3497 60.7643L31.6947 60.9667L32.2005 60.1041Z" fill="white"/>
<path d="M27.6417 67.8688L28.1484 67.0067L27.8036 66.804L27.2969 67.6661L27.6417 67.8688Z" fill="white"/>
<path d="M13.6177 70.8L14.5938 71.0178L14.6809 70.6274L13.7049 70.4096L13.6177 70.8Z" fill="white"/>
<path d="M19.4712 72.1066L20.4473 72.3239L20.5342 71.9334L19.5581 71.7161L19.4712 72.1066Z" fill="white"/>
<path d="M21.4243 72.5416L22.4004 72.7589L22.4873 72.3685L21.5112 72.1512L21.4243 72.5416Z" fill="white"/>
<path d="M17.52 71.6714L18.4961 71.8887L18.583 71.4982L17.6069 71.2809L17.52 71.6714Z" fill="white"/>
<path d="M15.5689 71.2351L16.5449 71.4529L16.632 71.0625L15.656 70.8447L15.5689 71.2351Z" fill="white"/>
<path d="M21.8082 55.9812L22.123 56.2295L22.7423 55.4444L22.4275 55.1961L21.8082 55.9812Z" fill="white"/>
<path d="M18.0914 60.6909L18.4062 60.9392L19.0256 60.1541L18.7107 59.9058L18.0914 60.6909Z" fill="white"/>
<path d="M21.1918 56.7632L20.5723 57.5482L20.8871 57.7966L21.5066 57.0116L21.1918 56.7632Z" fill="white"/>
<path d="M20.266 58.5784L19.9512 58.3301L19.3319 59.1152L19.6467 59.3635L20.266 58.5784Z" fill="white"/>
<path d="M23.9828 53.8687L23.668 53.6204L23.0487 54.4055L23.3635 54.6538L23.9828 53.8687Z" fill="white"/>
<path d="M17.473 61.4721L16.8535 62.2571L17.1683 62.5055L17.7878 61.7205L17.473 61.4721Z" fill="white"/>
<path d="M13.7562 66.1822L13.1367 66.9672L13.4515 67.2156L14.071 66.4306L13.7562 66.1822Z" fill="white"/>
<path d="M11.8961 68.5399L12.2109 68.7882L12.8302 68.0031L12.5154 67.7548L11.8961 68.5399Z" fill="white"/>
<path d="M15.6129 63.8306L15.9277 64.079L16.547 63.2939L16.2322 63.0455L15.6129 63.8306Z" fill="white"/>
<path d="M14.3727 65.4002L14.6875 65.6486L15.3068 64.8635L14.992 64.6151L14.3727 65.4002Z" fill="white"/>
<path d="M34.1928 77.9982L33.3105 77.5275L33.1223 77.8804L34.0046 78.3511L34.1928 77.9982Z" fill="white"/>
<path d="M29.5941 75.998L30.4766 76.4683L30.6647 76.1153L29.7822 75.645L29.5941 75.998Z" fill="white"/>
<path d="M27.8284 75.0568L28.7109 75.5271L28.8991 75.1741L28.0166 74.7038L27.8284 75.0568Z" fill="white"/>
<path d="M35.9606 78.9382L35.0781 78.4679L34.89 78.8209L35.7725 79.2912L35.9606 78.9382Z" fill="white"/>
<path d="M31.3599 76.9377L32.2422 77.4084L32.4305 77.0555L31.5482 76.5848L31.3599 76.9377Z" fill="white"/>
<path d="M26.065 74.1156L26.9473 74.5863L27.1355 74.2334L26.2532 73.7627L26.065 74.1156Z" fill="white"/>
<path d="M52.2435 75.4462L51.8457 75.4883L51.9508 76.4828L52.3486 76.4407L52.2435 75.4462Z" fill="white"/>
<path d="M45.9331 75.8866L45.0508 76.3573L45.2391 76.7102L46.1214 76.2395L45.9331 75.8866Z" fill="white"/>
<path d="M52.4544 77.4343L52.0566 77.4763L52.1617 78.4708L52.5595 78.4288L52.4544 77.4343Z" fill="white"/>
<path d="M48.579 74.4734L48.7676 74.8262L49.6495 74.3547L49.4609 74.0019L48.579 74.4734Z" fill="white"/>
<path d="M52.2617 79.4663L52.3672 80.4607L52.7649 80.4185L52.6594 79.4241L52.2617 79.4663Z" fill="white"/>
<path d="M47.697 74.9477L46.8145 75.418L47.0026 75.771L47.8851 75.3007L47.697 74.9477Z" fill="white"/>
<path d="M42.402 77.7697L41.5195 78.24L41.7077 78.593L42.5902 78.1227L42.402 77.7697Z" fill="white"/>
<path d="M40.6364 78.7109L39.7539 79.1812L39.942 79.5342L40.8245 79.0639L40.6364 78.7109Z" fill="white"/>
<path d="M44.1675 76.8278L43.2852 77.2985L43.4734 77.6514L44.3557 77.1807L44.1675 76.8278Z" fill="white"/>
<path d="M23.8603 75.955L24.2578 75.9999L24.3701 75.0062L23.9726 74.9613L23.8603 75.955Z" fill="white"/>
<path d="M23.415 79.9302L23.8125 79.9751L23.9248 78.9814L23.5273 78.9365L23.415 79.9302Z" fill="white"/>
<path d="M23.6377 77.9425L24.0352 77.9874L24.1475 76.9937L23.75 76.9488L23.6377 77.9425Z" fill="white"/>
<path d="M23.1924 81.9181L23.5898 81.963L23.7021 80.9693L23.3047 80.9244L23.1924 81.9181Z" fill="white"/>
<path d="M35.1114 80.7175L35.1934 81.109L36.1722 80.904L36.0902 80.5125L35.1114 80.7175Z" fill="white"/>
<path d="M31.1973 81.5369L31.2793 81.9285L32.2581 81.7235L32.1761 81.3319L31.1973 81.5369Z" fill="white"/>
<path d="M25.3242 82.7657L25.4062 83.1572L26.385 82.9522L26.303 82.5607L25.3242 82.7657Z" fill="white"/>
<path d="M33.1543 81.1267L33.2363 81.5182L34.2151 81.3132L34.1331 80.9217L33.1543 81.1267Z" fill="white"/>
<path d="M29.2403 81.946L29.3223 82.3375L30.3011 82.1325L30.2191 81.741L29.2403 81.946Z" fill="white"/>
<path d="M27.2813 82.3564L27.3633 82.7479L28.3421 82.5429L28.2601 82.1514L27.2813 82.3564Z" fill="white"/>
<path d="M45.8558 82.0662L46.8359 82.2649L46.9154 81.8729L45.9353 81.6742L45.8558 82.0662Z" fill="white"/>
<path d="M43.9066 81.6729L44.8867 81.8712L44.966 81.4792L43.9859 81.2809L43.9066 81.6729Z" fill="white"/>
<path d="M41.9417 81.2705L42.9219 81.4688L43.0012 81.0767L42.021 80.8785L41.9417 81.2705Z" fill="white"/>
<path d="M39.975 80.8761L40.9551 81.0748L41.0346 80.6828L40.0545 80.4841L39.975 80.8761Z" fill="white"/>
<path d="M47.8265 82.4669L48.8066 82.6652L48.886 82.2731L47.9059 82.0748L47.8265 82.4669Z" fill="white"/>
<path d="M49.7875 82.8638L50.7676 83.0621L50.8469 82.6701L49.8668 82.4718L49.7875 82.8638Z" fill="white"/>
<path d="M27.2941 31.5878L27.9824 30.8624L27.6923 30.5871L27.004 31.3125L27.2941 31.5878Z" fill="white"/>
<path d="M26.6045 32.316L26.3145 32.0405L25.6259 32.7657L25.9159 33.0412L26.6045 32.316Z" fill="white"/>
<path d="M28.3798 29.8592L28.6699 30.1346L29.3585 29.4094L29.0684 29.134L28.3798 29.8592Z" fill="white"/>
<path d="M48.2034 30.7573L48.8691 31.5035L49.1676 31.2373L48.5019 30.4911L48.2034 30.7573Z" fill="white"/>
<path d="M46.8748 29.2613L47.541 30.0071L47.8393 29.7406L47.1731 28.9948L46.8748 29.2613Z" fill="white"/>
<path d="M50.5041 32.7279L49.8379 31.9821L49.5396 32.2485L50.2058 32.9943L50.5041 32.7279Z" fill="white"/>
<path d="M33.2051 28.0291H32.2051V28.4291H33.2051V28.0291Z" fill="white"/>
<path d="M41.2051 28.0291H40.2051V28.4291H41.2051V28.0291Z" fill="white"/>
<path d="M37.2051 28.0291H36.2051V28.4291H37.2051V28.0291Z" fill="white"/>
<path d="M39.2051 28.0291H38.2051V28.4291H39.2051V28.0291Z" fill="white"/>
<path d="M35.2051 28.0291H34.2051V28.4291H35.2051V28.0291Z" fill="white"/>
<path d="M43.2051 28.0291H42.2051V28.4291H43.2051V28.0291Z" fill="white"/>
<path d="M49.7332 26.2968L49.9082 26.6565L50.8075 26.2191L50.6325 25.8594L49.7332 26.2968Z" fill="white"/>
<path d="M55.1278 23.6726L55.3027 24.0323L56.202 23.5949L56.0271 23.2352L55.1278 23.6726Z" fill="white"/>
<path d="M58.7254 21.9224L58.9004 22.2821L59.7997 21.8447L59.6247 21.485L58.7254 21.9224Z" fill="white"/>
<path d="M60.5243 21.0477L60.6992 21.4075L61.5985 20.9701L61.4236 20.6103L60.5243 21.0477Z" fill="white"/>
<path d="M47.9344 27.1724L48.1094 27.5321L49.0087 27.0947L48.8337 26.735L47.9344 27.1724Z" fill="white"/>
<path d="M54.3996 24.4741L54.2246 24.1144L53.3253 24.5518L53.5003 24.9115L54.3996 24.4741Z" fill="white"/>
<path d="M56.9266 22.798L57.1016 23.1577L58.0009 22.7203L57.8259 22.3606L56.9266 22.798Z" fill="white"/>
<path d="M64.2922 19.6581L65.1914 19.2205L65.0164 18.8608L64.1172 19.2984L64.2922 19.6581Z" fill="white"/>
<path d="M62.3211 20.1721L62.4961 20.5319L63.3954 20.0945L63.2204 19.7347L62.3211 20.1721Z" fill="white"/>
<path d="M52.6007 25.3495L52.4258 24.9897L51.5265 25.4271L51.7014 25.7869L52.6007 25.3495Z" fill="white"/>
<path d="M65.4075 25.8071L65.0254 25.6888L64.7298 26.6441L65.1119 26.7624L65.4075 25.8071Z" fill="white"/>
<path d="M64.433 27.6025L64.1387 28.5582L64.521 28.6759L64.8153 27.7202L64.433 27.6025Z" fill="white"/>
<path d="M67.1731 20.0728L66.791 19.9546L66.4954 20.9099L66.8775 21.0281L67.1731 20.0728Z" fill="white"/>
<path d="M65.6168 23.7781L65.3223 24.7338L65.7045 24.8516L65.999 23.8959L65.6168 23.7781Z" fill="white"/>
<path d="M62.9616 32.3838L63.3438 32.5021L63.6393 31.5468L63.2572 31.4285L62.9616 32.3838Z" fill="white"/>
<path d="M66.5852 21.9851L66.2031 21.8668L65.9075 22.8221L66.2896 22.9404L66.5852 21.9851Z" fill="white"/>
<path d="M64.2298 29.6301L63.8477 29.5118L63.5521 30.4671L63.9342 30.5854L64.2298 29.6301Z" fill="white"/>
<path d="M9.94293 22.8773L10.3281 22.7659L10.0502 21.8053L9.66503 21.9167L9.94293 22.8773Z" fill="white"/>
<path d="M11.0543 26.7202L11.4395 26.6088L11.1616 25.6482L10.7764 25.7596L11.0543 26.7202Z" fill="white"/>
<path d="M11.33 27.6848L11.6074 28.6455L11.9927 28.5343L11.7153 27.5736L11.33 27.6848Z" fill="white"/>
<path d="M12.7183 32.4856L13.1035 32.3741L12.8256 31.4135L12.4404 31.525L12.7183 32.4856Z" fill="white"/>
<path d="M11.8842 29.6036L12.1621 30.5642L12.5464 30.453L12.2685 29.4924L11.8842 29.6036Z" fill="white"/>
<path d="M10.8828 24.6897L10.6055 23.7289L10.2202 23.8401L10.4975 24.8009L10.8828 24.6897Z" fill="white"/>
<path d="M9.77349 20.8442L9.49609 19.8835L9.11085 19.9948L9.38825 20.9555L9.77349 20.8442Z" fill="white"/>
<path d="M18.4713 22.6261L19.3672 23.0704L19.5449 22.7121L18.649 22.2678L18.4713 22.6261Z" fill="white"/>
<path d="M20.4414 23.1582L20.2637 23.5166L21.1596 23.9609L21.3373 23.6025L20.4414 23.1582Z" fill="white"/>
<path d="M14.8896 20.8466L15.7852 21.2915L15.9631 20.9333L15.0675 20.4884L14.8896 20.8466Z" fill="white"/>
<path d="M11.3073 19.0677L12.2031 19.5122L12.3809 19.1539L11.4851 18.7094L11.3073 19.0677Z" fill="white"/>
<path d="M16.6825 21.7358L17.5781 22.1807L17.7561 21.8224L16.8605 21.3775L16.6825 21.7358Z" fill="white"/>
<path d="M27.4286 27.0733L28.3242 27.5182L28.5022 27.1599L27.6066 26.715L27.4286 27.0733Z" fill="white"/>
<path d="M23.8466 25.2936L24.7422 25.7385L24.9201 25.3803L24.0245 24.9354L23.8466 25.2936Z" fill="white"/>
<path d="M22.0555 24.4049L22.9512 24.8496L23.1291 24.4913L22.2334 24.0466L22.0555 24.4049Z" fill="white"/>
<path d="M13.0985 19.9573L13.9941 20.4022L14.1721 20.044L13.2765 19.5991L13.0985 19.9573Z" fill="white"/>
<path d="M26.7103 26.2726L25.8145 25.8281L25.6367 26.1864L26.5325 26.6309L26.7103 26.2726Z" fill="white"/>
<path d="M29.8187 26.2571L29.5312 25.2993L29.1481 25.4143L29.4356 26.3721L29.8187 26.2571Z" fill="white"/>
<path d="M24.9397 9.97481L24.5566 10.0901L24.8448 11.0477L25.2279 10.9324L24.9397 9.97481Z" fill="white"/>
<path d="M27.8127 19.5544L27.4297 19.6697L27.7179 20.6273L28.1009 20.512L27.8127 19.5544Z" fill="white"/>
<path d="M27.1404 18.7055L27.5234 18.5902L27.2352 17.6326L26.8522 17.7479L27.1404 18.7055Z" fill="white"/>
<path d="M25.7066 13.9185L25.9941 14.8763L26.3773 14.7613L26.0898 13.8035L25.7066 13.9185Z" fill="white"/>
<path d="M25.7989 12.8474L25.5117 11.8895L25.1286 12.0044L25.4158 12.9623L25.7989 12.8474Z" fill="white"/>
<path d="M26.5662 16.7901L26.9492 16.6748L26.661 15.7172L26.278 15.8325L26.5662 16.7901Z" fill="white"/>
<path d="M28.8631 24.4522L29.2461 24.3369L28.9579 23.3793L28.5749 23.4946L28.8631 24.4522Z" fill="white"/>
<path d="M28.2888 22.5373L28.6719 22.422L28.3837 21.4644L28.0006 21.5797L28.2888 22.5373Z" fill="white"/>
<path d="M47.7793 23.4731L47.3945 23.3638L47.1211 24.3257L47.5059 24.435L47.7793 23.4731Z" fill="white"/>
<path d="M48.5967 20.5885L48.8691 19.6263L48.4843 19.5174L48.2119 20.4796L48.5967 20.5885Z" fill="white"/>
<path d="M49.418 17.6999L49.0332 17.5906L48.7598 18.5525L49.1446 18.6618L49.418 17.6999Z" fill="white"/>
<path d="M51.0547 11.9278L50.6699 11.8185L50.3965 12.7804L50.7813 12.8897L51.0547 11.9278Z" fill="white"/>
<path d="M47.6641 22.4044L48.0488 22.5138L48.3222 21.5519L47.9375 21.4425L47.6641 22.4044Z" fill="white"/>
<path d="M47.2344 25.3961L46.8496 25.2867L46.5762 26.2486L46.961 26.358L47.2344 25.3961Z" fill="white"/>
<path d="M49.3027 16.6319L49.6875 16.7412L49.9609 15.7793L49.5761 15.67L49.3027 16.6319Z" fill="white"/>
<path d="M49.8477 14.7078L50.2324 14.8171L50.5058 13.8552L50.1211 13.7459L49.8477 14.7078Z" fill="white"/>
<path d="M38.293 8.65295H37.293V9.05295H38.293V8.65295Z" fill="white"/>
<path d="M34.293 8.65295H33.293V9.05295H34.293V8.65295Z" fill="white"/>
<path d="M46.293 8.65295H45.293V9.05295H46.293V8.65295Z" fill="white"/>
<path d="M42.293 8.65295H41.293V9.05295H42.293V8.65295Z" fill="white"/>
<path d="M44.293 8.65295H43.293V9.05295H44.293V8.65295Z" fill="white"/>
<path d="M40.293 8.65295H39.293V9.05295H40.293V8.65295Z" fill="white"/>
<path d="M30.293 8.65295H29.293V9.05295H30.293V8.65295Z" fill="white"/>
<path d="M28.293 8.65295H27.293V9.05295H28.293V8.65295Z" fill="white"/>
<path d="M48.293 8.65295H47.293V9.05295H48.293V8.65295Z" fill="white"/>
<path d="M50.293 8.65295H49.293V9.05295H50.293V8.65295Z" fill="white"/>
<path d="M36.293 8.65295H35.293V9.05295H36.293V8.65295Z" fill="white"/>
<path d="M32.293 8.65295H31.293V9.05295H32.293V8.65295Z" fill="white"/>
<path d="M15.8056 13.9752L15.6074 13.6277L14.7387 14.1231L14.9369 14.4706L15.8056 13.9752Z" fill="white"/>
<path d="M14.0673 14.9642L13.8691 14.6167L13.0004 15.1121L13.1986 15.4596L14.0673 14.9642Z" fill="white"/>
<path d="M12.329 15.9543L12.1309 15.6068L11.2622 16.1022L11.4603 16.4497L12.329 15.9543Z" fill="white"/>
<path d="M22.7568 10.0167L22.5586 9.66919L21.6899 10.1646L21.8881 10.5121L22.7568 10.0167Z" fill="white"/>
<path d="M17.5439 12.9851L17.3457 12.6376L16.477 13.133L16.6752 13.4805L17.5439 12.9851Z" fill="white"/>
<path d="M21.0185 11.0059L20.8203 10.6584L19.9516 11.1538L20.1498 11.5013L21.0185 11.0059Z" fill="white"/>
<path d="M19.2802 11.9958L19.082 11.6483L18.2133 12.1437L18.4115 12.4912L19.2802 11.9958Z" fill="white"/>
<path d="M65.0001 15.8835L64.1191 15.4103L63.9299 15.7627L64.8109 16.2359L65.0001 15.8835Z" fill="white"/>
<path d="M57.9513 12.0983L57.0703 11.6251L56.881 11.9775L57.762 12.4507L57.9513 12.0983Z" fill="white"/>
<path d="M59.713 13.0445L58.832 12.5713L58.6428 12.9237L59.5238 13.3969L59.713 13.0445Z" fill="white"/>
<path d="M54.4279 10.2053L53.5469 9.73206L53.3576 10.0845L54.2386 10.5577L54.4279 10.2053Z" fill="white"/>
<path d="M63.2365 14.9376L62.3555 14.4644L62.1662 14.8168L63.0472 15.29L63.2365 14.9376Z" fill="white"/>
<path d="M61.4747 13.9905L60.5938 13.5173L60.4045 13.8697L61.2855 14.3429L61.4747 13.9905Z" fill="white"/>
<path d="M56.1896 11.1523L55.3086 10.6791L55.1193 11.0315L56.0003 11.5047L56.1896 11.1523Z" fill="white"/>
</svg>
