<svg width="24" height="24" viewBox="0 0 24 24" fill="none" xmlns="http://www.w3.org/2000/svg">
<path d="M19.3449 0.815835L23.1858 4.65685C24.2476 5.71859 24.2476 7.44 23.1858 8.50174L20.063 11.624C21.3716 11.8203 22.375 12.9493 22.375 14.3125V20.6563C22.375 22.1577 21.1577 23.375 19.6562 23.375H3.34375C1.84223 23.375 0.625 22.1577 0.625 20.6563V4.34377C0.625 2.84223 1.84223 1.62502 3.34375 1.62502H9.6875C11.0516 1.62502 12.1811 2.62969 12.3764 3.93946L15.4999 0.815835C16.5617 -0.245903 18.2831 -0.245903 19.3449 0.815835ZM2.4375 20.6563C2.4375 21.1567 2.84325 21.5625 3.34375 21.5625L10.5925 21.5617L10.5938 13.4063L2.4375 13.4054V20.6563ZM12.405 21.5617L19.6562 21.5625C20.1567 21.5625 20.5625 21.1567 20.5625 20.6563V14.3125C20.5625 13.812 20.1567 13.4063 19.6562 13.4063L12.405 13.4054V21.5617ZM9.6875 3.43752H3.34375C2.84325 3.43752 2.4375 3.84325 2.4375 4.34377V11.5929H10.5938V4.34377C10.5938 3.84325 10.188 3.43752 9.6875 3.43752ZM12.4062 9.24878V11.5938L14.7504 11.5929L12.4062 9.24878Z" fill="#0072BB"/>
</svg>
