<svg width="148" height="193" viewBox="0 0 148 193" fill="none" xmlns="http://www.w3.org/2000/svg">
<path d="M138.194 27.6722C116.191 23.671 97.0086 15.4066 81.1783 3.11113C79.0318 1.4459 76.4615 0.613281 73.8913 0.613281C54.1619 65.2145 53.7062 129.113 73.8913 192.264C75.7375 192.264 77.5837 191.972 79.3448 191.391C121.048 177.537 147.994 144.466 147.994 107.137V39.446C147.994 33.6581 143.871 28.705 138.194 27.6722Z" fill="#38B177"/>
<path d="M10.7656 27.6722C32.7692 23.671 51.9513 15.4066 67.7817 3.11113C69.9282 1.4459 72.4984 0.613281 75.0687 0.613281V192.264C73.2224 192.264 71.3762 191.972 69.6151 191.391C27.9119 177.537 0.96582 144.466 0.96582 107.137V39.446C0.96795 33.6581 5.08844 28.705 10.7656 27.6722Z" fill="#2E9764"/>
<path d="M75.0682 48.5899C74.6743 48.5793 74.2889 48.5303 73.8907 48.5303C48.646 48.5303 28.1074 69.0688 28.1074 94.3135C28.1074 119.558 48.646 140.097 73.8907 140.097C74.2889 140.097 74.6743 140.048 75.0682 140.037C79.0801 109.403 79.1504 78.9176 75.0682 48.5899Z" fill="#CFE6DB"/>
<path d="M75.0684 48.5899C75.4644 48.5793 75.8499 48.5303 76.2459 48.5303C101.491 48.5303 122.029 69.0688 122.029 94.3135C122.029 119.558 101.491 140.097 76.2459 140.097C75.8477 140.097 75.4623 140.048 75.0684 140.037V48.5899Z" fill="#E4F0EA"/>
<path d="M75.0686 87.6972L69.9089 92.8568L62.9435 85.8914C60.4712 83.4233 56.4529 83.4212 53.9828 85.8914L49.1915 90.6826C46.7213 93.1549 46.7213 97.1754 49.1915 99.6455L65.4286 115.88C66.6637 117.116 68.2863 117.733 69.9089 117.733C71.5316 117.733 73.1542 117.116 74.3893 115.88L75.0665 115.203C79.0038 105.789 79.2274 96.6089 75.0686 87.6972Z" fill="#165C3A"/>
<path d="M98.588 82.7207L93.7988 77.9294C91.4032 75.5338 87.2274 75.538 84.836 77.9294L75.0703 87.6951V115.199L98.588 91.6793C101.058 89.2113 101.058 85.1908 98.588 82.7207Z" fill="#196942"/>
</svg>
